<svg xmlns="http://www.w3.org/2000/svg" width="1006" height="673.49" viewBox="0 0 1006 673.49"><g transform="translate(4.833 -328.437)"><path d="M977.651,982.661v-.481c1.629,0,3.267.112,4.886-.021a8.137,8.137,0,0,0,7.081-6.359,8.307,8.307,0,0,0-8.433-10.329q-31.677.154-63.352.393-35.747.215-71.5.409t-71.5.407l-71.5.409q-35.649.2-71.3.407l-71.5.407q-26.991.152-53.982.3c-10.526.054-21.053.044-31.579.109q-28.415.17-56.83.409-45.114.43-90.224.94a302.412,302.412,0,0,1-66.458-7,312.307,312.307,0,0,1-97.351-38.431C121.231,898.243,87.035,863.42,59.819,821.522a411.468,411.468,0,0,1-30.068-55.383,8.732,8.732,0,0,0-5.163-5.158,8.061,8.061,0,0,0-8.971,2.108,8.075,8.075,0,0,0-1.464,9.614c3.629,7.658,7.184,15.362,11.082,22.884,19.416,37.472,43.7,71.358,74.4,100.494a323.67,323.67,0,0,0,120.7,72.762,330.359,330.359,0,0,0,108.138,17.714c6.849-.038,13.694-.643,20.543-.705,24.1-.212,48.211-.3,72.318-.437l70.684-.407,71.909-.409,71.095-.407q35.954-.2,71.907-.407l70.889-.407q36.057-.205,72.114-.409c17.789-.1,35.579-.257,53.369-.3C928.08,982.623,952.865,982.661,977.651,982.661ZM319.87,415.119c-4.881.207-9.766.357-14.644.634a214.651,214.651,0,0,0-55,10.494c-36.981,12.139-68.73,32.587-95.706,60.542a243.833,243.833,0,0,0-50.27,76.427c-15.768,38.008-21.831,77.378-15.665,118.3a188.673,188.673,0,0,0,38.985,90.3,288.527,288.527,0,0,0,68.943,62.552c38.371,25.121,80.261,38.722,126.467,37.88a226.922,226.922,0,0,0,42.809-4.836,261.919,261.919,0,0,0,83.743-33.706c6-3.694,11.767-7.795,17.468-11.946a8.389,8.389,0,0,0,1.731-12.224c-2.971-3.691-8.174-4.124-12.193-1.02-.8.622-1.6,1.257-2.437,1.841-37.556,26.31-78.869,42.154-124.914,44.807a191.216,191.216,0,0,1-50.584-3.969c-26.9-5.661-51.5-16.725-74.318-31.913a301.929,301.929,0,0,1-48.952-41.278,184.06,184.06,0,0,1-33.39-46.423c-17.919-36.037-22.532-74.02-16.118-113.5a214.081,214.081,0,0,1,23.931-69.046c23.121-42.138,55.721-74.627,99.025-95.88,40.192-19.725,82.558-25.242,126.632-18.157a251.539,251.539,0,0,1,74.279,24.474c11.109,5.645,21.753,12.212,32.582,18.406,3.179,1.817,6.337,2.018,9.411,0a8.039,8.039,0,0,0,3.621-8.471,8.387,8.387,0,0,0-4.178-5.961,334.61,334.61,0,0,0-50.255-26.7C388.6,423.091,355.068,415.26,319.87,415.119ZM255.665,928.961a24.779,24.779,0,0,0,2.6-.453,8.432,8.432,0,0,0,.345-16.01,457.866,457.866,0,0,1-48.066-21.483c-30.283-15.808-58.047-35.068-81.974-59.619a245.335,245.335,0,0,1-44.144-61.658c-17.813-35.581-25.911-73.473-26.719-113.07a317.083,317.083,0,0,1,1.823-39.824,334.424,334.424,0,0,1,11.813-59.987c1.9-6.425,4.16-12.751,6.35-19.09,1.166-3.376.863-6.438-1.586-9.088a8.034,8.034,0,0,0-8.733-2.326c-3.412,1.019-4.943,3.725-6.07,6.862A350.686,350.686,0,0,0,40.821,651.489a297.42,297.42,0,0,0,4.116,50.244,264.6,264.6,0,0,0,26.984,80.634C90.6,817.7,116.492,846.89,147.988,871.254c31.774,24.579,67.091,42.7,104.493,56.972A22.137,22.137,0,0,0,255.665,928.961Zm80.956-576.082c-10.917-.08-26.243,1.261-41.49,3.64a345.5,345.5,0,0,0-54.467,13.269,408.1,408.1,0,0,0-44.237,17.447,8.316,8.316,0,0,0-4.893,9.145c1.052,5.749,6.779,8.529,12.391,5.974a386.944,386.944,0,0,1,63.054-22.716c34.675-9,69.771-12.437,105.478-7.986a246.233,246.233,0,0,1,68.029,18.566c34.253,14.886,63.958,36.322,90.112,62.826,18.142,18.388,34.175,38.421,47.241,60.76a8.442,8.442,0,1,0,14.709-8.289c-1.024-1.91-2.151-3.769-3.3-5.611a337.05,337.05,0,0,0-53.12-65.166c-23.007-22.128-48.592-40.615-77.311-54.661C421.7,361.922,382.474,352.855,336.621,352.879Z" transform="translate(11.335 15.365)" fill="#d8eeeb"/><path d="M-4.833,643.028c.153-3.507.329-7.013.456-10.523,1.6-44.151,10.873-86.535,29.25-126.813C40.932,470.5,62.9,439.4,90,411.851c31.038-31.545,66.8-56.614,105.708-77.412q4.036-2.157,8.117-4.235c4.665-2.381,9.642-.94,11.86,3.409,2.231,4.375.533,9.2-4.171,11.624-14.608,7.518-28.861,15.649-42.662,24.563a388.52,388.52,0,0,0-65.907,52.965C62.618,463.535,34.96,511.472,21.381,567.33a326.2,326.2,0,0,0-8.4,55.86,346.558,346.558,0,0,0,.577,53.282c2.471,27.921,7.5,55.345,16.681,81.916A8.423,8.423,0,1,1,14.353,764,279.073,279.073,0,0,1,4.2,727.6,379.562,379.562,0,0,1-4.09,664.74c-.241-5.15-.285-10.31-.443-15.465a7.207,7.207,0,0,0-.3-1.357Z" transform="translate(0 0.393)" fill="#d8eeeb"/><path d="M280.2,328.437c4.156,1.2,8.344,2.295,12.463,3.606,21.984,6.992,42.444,17.208,61.823,29.621,40.089,25.677,72.679,58.979,99.466,98.141,3.026,4.422,5.971,8.906,8.772,13.471a8.271,8.271,0,0,1-1.738,10.7,8.389,8.389,0,0,1-10.693.189,10.672,10.672,0,0,1-2.231-2.6,358.075,358.075,0,0,0-53.61-66.624c-29.216-28.243-62.2-50.679-100.594-64.651-5.147-1.875-10.455-3.34-15.748-4.772-4.635-1.254-7.329-3.839-7.665-7.792a8.495,8.495,0,0,1,6.613-9.02l.29-.267Z" transform="translate(173.049 0)" fill="#d8eeeb"/><path d="M977.651,825.334c-24.786,0-49.571-.038-74.354.013-17.79.038-35.581.194-53.369.295q-36.057.208-72.114.408l-70.889.407q-35.954.205-71.907.407l-71.095.407-71.909.409-70.684.407c-24.106.137-48.213.225-72.318.436-6.849.062-13.694.668-20.543.705A330.362,330.362,0,0,1,220.33,811.516a323.675,323.675,0,0,1-120.7-72.763c-30.7-29.136-54.98-63.023-74.4-100.494-3.9-7.522-7.453-15.225-11.082-22.884a8.075,8.075,0,0,1,1.464-9.614,8.06,8.06,0,0,1,8.971-2.108,8.732,8.732,0,0,1,5.163,5.158,411.445,411.445,0,0,0,30.068,55.382c27.216,41.9,61.412,76.722,104.291,102.714a312.292,312.292,0,0,0,97.351,38.431,302.375,302.375,0,0,0,66.458,7q45.111-.459,90.224-.94,28.415-.274,56.83-.409c10.526-.065,21.053-.055,31.579-.109q26.991-.135,53.982-.3,35.749-.205,71.5-.407l71.3-.407,71.5-.409,71.5-.407q35.752-.2,71.5-.409,31.677-.19,63.352-.393a8.307,8.307,0,0,1,8.433,10.329,8.137,8.137,0,0,1-7.081,6.358c-1.619.133-3.257.021-4.886.021Z" transform="translate(11.335 172.692)" fill="#d8eeeb"/><path d="M291.685,391.092c35.2.142,68.727,7.973,101,21.637a334.634,334.634,0,0,1,50.255,26.7,8.388,8.388,0,0,1,4.178,5.961,8.039,8.039,0,0,1-3.62,8.471c-3.073,2.015-6.232,1.814-9.411,0-10.829-6.194-21.473-12.761-32.582-18.406a251.549,251.549,0,0,0-74.279-24.474c-44.074-7.085-86.44-1.568-126.632,18.157-43.3,21.253-75.9,53.742-99.025,95.88a214.078,214.078,0,0,0-23.931,69.046c-6.414,39.478-1.8,77.461,16.118,113.5a184.063,184.063,0,0,0,33.39,46.423A301.929,301.929,0,0,0,176.1,795.264c22.815,15.188,47.413,26.252,74.318,31.913A191.221,191.221,0,0,0,301,831.146c46.045-2.653,87.357-18.5,124.914-44.807.834-.583,1.632-1.218,2.437-1.84,4.018-3.1,9.222-2.671,12.193,1.02a8.389,8.389,0,0,1-1.731,12.224c-5.7,4.152-11.466,8.253-17.468,11.947A261.919,261.919,0,0,1,337.6,843.394a226.932,226.932,0,0,1-42.809,4.836c-46.206.842-88.1-12.759-126.467-37.88A288.525,288.525,0,0,1,99.385,747.8a188.676,188.676,0,0,1-38.985-90.3c-6.166-40.927-.1-80.3,15.665-118.3a243.83,243.83,0,0,1,50.27-76.427c26.976-27.955,58.725-48.4,95.706-60.542a214.646,214.646,0,0,1,55-10.494C281.919,391.449,286.8,391.3,291.685,391.092Z" transform="translate(39.52 39.392)" fill="#d8eeeb"/><path d="M245,862.161a22.137,22.137,0,0,1-3.184-.734c-37.4-14.277-72.719-32.394-104.493-56.972-31.5-24.364-57.386-53.552-76.067-88.887a264.6,264.6,0,0,1-26.984-80.634,297.419,297.419,0,0,1-4.116-50.244A350.686,350.686,0,0,1,50.639,466.416c1.127-3.137,2.658-5.842,6.07-6.862a8.034,8.034,0,0,1,8.733,2.326c2.45,2.65,2.753,5.712,1.586,9.088-2.191,6.339-4.446,12.665-6.35,19.09a334.426,334.426,0,0,0-11.813,59.987,317.086,317.086,0,0,0-1.823,39.824c.808,39.6,8.906,77.489,26.719,113.07A245.333,245.333,0,0,0,117.906,764.6c23.927,24.551,51.692,43.81,81.974,59.619A457.936,457.936,0,0,0,247.947,845.7a8.432,8.432,0,0,1-.345,16.01A24.624,24.624,0,0,1,245,862.161Z" transform="translate(21.998 82.165)" fill="#d8eeeb"/><path d="M267.834,352.879c45.853-.025,85.079,9.042,122.2,27.2,28.719,14.046,54.3,32.534,77.311,54.661a337.049,337.049,0,0,1,53.12,65.166c1.145,1.842,2.272,3.7,3.3,5.611a8.442,8.442,0,1,1-14.709,8.289c-13.065-22.339-29.1-42.372-47.241-60.76-26.154-26.5-55.858-47.939-90.111-62.826a246.235,246.235,0,0,0-68.029-18.566c-35.708-4.451-70.8-1.018-105.478,7.986a386.944,386.944,0,0,0-63.054,22.716c-5.612,2.555-11.339-.225-12.391-5.974a8.316,8.316,0,0,1,4.893-9.145,408.1,408.1,0,0,1,44.237-17.447,345.5,345.5,0,0,1,54.467-13.269C241.591,354.14,256.917,352.8,267.834,352.879Z" transform="translate(80.122 15.365)" fill="#d8eeeb"/><path d="M154.852,555.823c-.7,0-3.564,0-4.266,0h-8.368a137.813,137.813,0,0,0,13.02-11.72h13.37v-13c2.709-2.782,8.523-9.624,11.538-13.046,0,3.969.007,8.777,0,11.961q-.054,59.6-.07,119.192c-.007,3.621.153,5.84,4.985,5.823,48.161-.179,96.323-.1,144.484-.173.712,0,2.536,1.3,2.389-1.062.122-1.772.35-3.544.352-5.316.015-36.542-.036-73.085.036-109.627.013-6.932-.577-13.883.378-20.8a113.016,113.016,0,0,1,12.409,12.126c.049,4.748.093,9.173.142,13.921h15.5c2.454,2.516,3.8,4.023,5.885,6.065,1.761,1.64,4.148,3.7,5.883,5.29-8.758,0-16.761,0-25.014.072-3.44.031-2.046.967-2.3,2.194-.038,30.709-.176,61.422-.015,92.131.026,5.246,1.673,10.466.764,15.794-3.389.014-6.78.037-10.171.04q-81.117.062-162.234.119c-.674.005-4.4-.006-5.073,0-.132-3.213.119-6.381.13-9.93.068-21.309,0-42.627,0-63.935,0-10.3.052-20.653,0-30.954-.008-1.645,0-3.272,0-5.163C164.316,555.892,159.321,555.823,154.852,555.823Z" transform="translate(92.452 119.215)" fill="#d8eeeb"/><path d="M392.177,561.422a19.621,19.621,0,0,1-6.479,6.345c-2.424,1.5-3.66-.285-5.319-1.785-30.678-27.733-59.586-57.319-89.84-85.5-7.878-7.336-15.434-15.021-23.009-22.673-3.45-3.485-5.8-4.187-9.911-.026-17,17.227-34.755,33.7-52.264,50.417q-23.915,22.833-47.493,46.057c-4.64,4.583-9.389,9.057-13.953,13.717-1.8,1.837-3.125,1.971-4.767-.07a23.119,23.119,0,0,0-3.419-3.381c-3.38-2.758-2.845-4.774.368-7.6,7.611-6.7,14.872-13.8,22.168-20.846,19.984-19.307,39.866-38.719,59.883-57.993,12.823-12.349,25.808-24.527,38.722-36.78a8.856,8.856,0,0,1,11.378-.153q8.091,7.354,15.953,14.96,35.415,34.134,70.785,68.311c11.684,11.236,23.525,22.31,35.3,33.455C391.186,558.738,392.175,559.538,392.177,561.422Z" transform="translate(86.923 69.612)" fill="#d8eeeb"/><path d="M392.177,580.124a19.617,19.617,0,0,1-6.479,6.346c-2.424,1.5-3.66-.284-5.319-1.785-30.678-27.734-59.586-57.319-89.84-85.494-7.878-7.337-15.434-15.022-23.009-22.675-3.45-3.484-5.8-4.187-9.911-.026-17,17.227-34.755,33.7-52.264,50.418q-23.915,22.83-47.493,46.055c-4.64,4.583-9.389,9.059-13.953,13.717-1.8,1.839-3.125,1.971-4.767-.07a23.245,23.245,0,0,0-3.419-3.381c-3.38-2.757-2.845-4.774.368-7.6,7.611-6.7,14.872-13.8,22.168-20.846,19.984-19.306,39.866-38.719,59.883-57.993,12.823-12.349,25.808-24.527,38.722-36.779a8.856,8.856,0,0,1,11.378-.151q8.091,7.351,15.953,14.958,35.415,34.135,70.785,68.313c11.684,11.235,23.525,22.308,35.3,33.454C391.186,577.44,392.175,578.241,392.177,580.124Z" transform="translate(86.923 81.371)" fill="#d8eeeb"/><path d="M197.035,573.168c.038-3.64-.036-7.582,0-11.22,4.744,0,16.556-.047,20.96,0v-5.388c0-7.645-.016-17.516,0-25.176,4.622.018,7.657.114,12.277.133-.01,6.37,0,13.709,0,20.079.135,5.456,0,7.73,0,10.352,11.386,0,14.54,0,23.843,0l-.226,11.22c-1.951-.021-4.583,0-6.523,0H230.273V600.1c.067.259-.076,2.845,0,3.1-5.077.026-7.2-.209-12.277-.182.023-.547-.145-3.551,0-3.876,0-.342-.015-.8,0-2.257.064-6.41,0-7.616,0-14.069v-9.647C212.877,573.2,202.4,573.168,197.035,573.168Z" transform="translate(126.91 127.593)" fill="#d8eeeb"/><path d="M266.279,570.724c0,12.288.037,24.574-.008,36.862-.023,6.1-1.112,7.2-7.191,7.214q-30.221.056-60.443,0c-6.318-.011-7.415-1.161-7.42-7.544q-.037-36.859-.01-73.714c0-6.547,1.3-7.92,7.736-7.935q29.952-.063,59.907,0c6.036.013,7.388,1.437,7.411,7.714C266.307,545.792,266.274,558.258,266.279,570.724Zm-65.36,6.717-.046,26.248c-.467,3.914,2.59,2.064,3.914,2.075,15.852.142,31.709-.057,47.56.192,4.3.067,4.958-1.622,4.922-5.342-.158-16.722.047-33.449-.129-50.172-.052-4.889,1-9.871-.694-14.694-7.458-.92-14.929-.549-22.4-.218a1.14,1.14,0,0,0-1.029.021l-13.865-.056c-4.972-.078-9.948-.086-14.917-.264-2.37-.085-3.6.482-3.533,3.2.212,8.515.228,17.033.321,25.553q-.056,5.455-.111,10.917Z" transform="translate(123.245 123.944)" fill="#d8eeeb"/></g></svg>