<svg xmlns="http://www.w3.org/2000/svg" width="648.027" height="433.836" viewBox="0 0 648.027 433.836"><g transform="translate(4.833 -328.437)"><path d="M634.461,758.56v-.31c1.049,0,2.1.073,3.147-.014a5.241,5.241,0,0,0,4.562-4.1,5.351,5.351,0,0,0-5.432-6.654q-20.4.1-40.809.253-23.027.139-46.058.263l-46.059.262-46.058.264-45.928.262-46.057.262q-17.387.1-34.773.2c-6.781.035-13.561.028-20.342.07q-18.3.11-36.608.263-29.06.277-58.119.606a194.8,194.8,0,0,1-42.81-4.508,201.175,201.175,0,0,1-62.71-24.756c-27.621-16.744-49.649-39.175-67.18-66.165a265.053,265.053,0,0,1-19.368-35.675,5.625,5.625,0,0,0-3.326-3.323,5.193,5.193,0,0,0-5.779,1.358,5.2,5.2,0,0,0-.943,6.193c2.338,4.933,4.628,9.9,7.138,14.741,12.507,24.138,28.149,45.966,47.923,64.734a208.5,208.5,0,0,0,77.749,46.871,212.8,212.8,0,0,0,69.658,11.411c4.412-.024,8.821-.414,13.233-.454,15.527-.137,31.056-.193,46.584-.281l45.532-.262,46.321-.264,45.8-.262,46.32-.263,45.664-.262q23.227-.132,46.453-.263c11.459-.065,22.919-.166,34.379-.19C602.529,758.535,618.5,758.56,634.461,758.56ZM210.744,392.97c-3.144.133-6.291.23-9.433.408a138.27,138.27,0,0,0-35.429,6.76,149.405,149.405,0,0,0-61.65,39A157.068,157.068,0,0,0,71.85,488.368c-10.157,24.483-14.063,49.844-10.091,76.207a121.536,121.536,0,0,0,25.112,58.17,185.858,185.858,0,0,0,44.411,40.294c24.717,16.182,51.7,24.943,81.466,24.4a146.182,146.182,0,0,0,27.576-3.115,168.718,168.718,0,0,0,53.944-21.712c3.866-2.379,7.58-5.021,11.252-7.7a5.4,5.4,0,0,0,1.115-7.874,5.512,5.512,0,0,0-7.854-.657c-.518.4-1.032.81-1.57,1.186-24.192,16.948-50.8,27.154-80.465,28.863a123.175,123.175,0,0,1-32.585-2.557,136.741,136.741,0,0,1-47.873-20.557,194.485,194.485,0,0,1-31.533-26.59,118.564,118.564,0,0,1-21.509-29.9c-11.543-23.214-14.514-47.681-10.382-73.111a137.9,137.9,0,0,1,15.415-44.477c14.894-27.144,35.894-48.072,63.788-61.762,25.89-12.706,53.18-16.26,81.571-11.7a162.032,162.032,0,0,1,47.848,15.766c7.156,3.636,14.012,7.867,20.988,11.857a5.425,5.425,0,0,0,6.062,0,5.178,5.178,0,0,0,2.332-5.457,5.4,5.4,0,0,0-2.691-3.84,215.55,215.55,0,0,0-32.373-17.2C255.015,398.106,233.417,393.062,210.744,392.97Zm-41.359,331a15.98,15.98,0,0,0,1.674-.292,5.431,5.431,0,0,0,.222-10.313,294.963,294.963,0,0,1-30.963-13.838c-19.507-10.183-37.392-22.589-52.8-38.4A158.035,158.035,0,0,1,59.079,621.4c-11.475-22.92-16.691-47.328-17.211-72.835a204.252,204.252,0,0,1,1.174-25.653,215.423,215.423,0,0,1,7.609-38.641c1.226-4.139,2.68-8.214,4.091-12.3a5.4,5.4,0,0,0-1.022-5.854,5.175,5.175,0,0,0-5.626-1.5c-2.2.657-3.184,2.4-3.91,4.42a225.9,225.9,0,0,0-13.193,76.187A191.588,191.588,0,0,0,33.642,577.6a170.443,170.443,0,0,0,17.382,51.941c12.034,22.761,28.711,41.563,49,57.257,20.468,15.833,43.218,27.5,67.31,36.7A14.274,14.274,0,0,0,169.385,723.968Zm52.149-371.09a178.847,178.847,0,0,0-26.726,2.345,222.566,222.566,0,0,0-35.086,8.547,262.885,262.885,0,0,0-28.5,11.238,5.357,5.357,0,0,0-3.152,5.891c.678,3.7,4.367,5.494,7.982,3.848a249.255,249.255,0,0,1,40.617-14.633c22.336-5.8,44.944-8.011,67.945-5.144a158.617,158.617,0,0,1,43.822,11.959c22.065,9.589,41.2,23.4,58.046,40.47a198.491,198.491,0,0,1,30.431,39.14,5.438,5.438,0,1,0,9.475-5.339c-.66-1.231-1.386-2.428-2.123-3.614a217.118,217.118,0,0,0-34.218-41.978,195.705,195.705,0,0,0-49.8-35.211C276.339,358.7,251.071,352.862,221.534,352.878Z" transform="translate(0.886 1.201)" fill="#fcd126"/><path d="M-4.833,531.307c.1-2.259.212-4.518.294-6.779,1.03-28.44,7-55.742,18.842-81.688a210.137,210.137,0,0,1,41.953-60.449c19.994-20.32,43.033-36.468,68.093-49.866q2.6-1.39,5.229-2.728c3-1.534,6.211-.605,7.64,2.2,1.437,2.818.343,5.929-2.687,7.488-9.41,4.843-18.591,10.08-27.481,15.822a250.267,250.267,0,0,0-42.455,34.118C38.617,415.684,20.8,446.564,12.053,482.545a210.123,210.123,0,0,0-5.413,35.983,223.24,223.24,0,0,0,.371,34.322C8.6,570.836,11.845,588.5,17.757,605.617a5.426,5.426,0,1,1-10.231,3.614A179.768,179.768,0,0,1,.983,585.788a244.5,244.5,0,0,1-5.338-40.5c-.155-3.318-.184-6.641-.285-9.962a4.643,4.643,0,0,0-.193-.874Z" transform="translate(0 0.031)" fill="#fcd126"/><path d="M276.716,328.437c2.677.77,5.375,1.478,8.028,2.323a168.472,168.472,0,0,1,39.824,19.081c25.824,16.54,46.817,37.992,64.073,63.219,1.949,2.848,3.846,5.737,5.651,8.677a5.328,5.328,0,0,1-1.119,6.894,5.4,5.4,0,0,1-6.888.122,6.874,6.874,0,0,1-1.437-1.678,230.658,230.658,0,0,0-34.534-42.917c-18.82-18.193-40.069-32.645-64.8-41.646-3.315-1.208-6.734-2.152-10.144-3.074-2.986-.808-4.721-2.473-4.937-5.019a5.472,5.472,0,0,1,4.26-5.81l.187-.172Z" transform="translate(13.529 0)" fill="#fcd126"/><path d="M634.461,746.26c-15.966,0-31.932-.024-47.9.008-11.46.024-22.92.125-34.379.19q-23.227.134-46.453.263l-45.664.262-46.32.262-45.8.262-46.321.263-45.532.262c-15.528.088-31.057.145-46.584.281-4.412.04-8.821.43-13.233.454a212.807,212.807,0,0,1-69.658-11.411,208.5,208.5,0,0,1-77.749-46.871c-19.774-18.768-35.416-40.6-47.923-64.735-2.511-4.845-4.8-9.807-7.138-14.741a5.2,5.2,0,0,1,.943-6.193,5.192,5.192,0,0,1,5.779-1.358,5.624,5.624,0,0,1,3.326,3.323A265.039,265.039,0,0,0,43.229,642.46c17.531,26.99,39.559,49.421,67.18,66.165a201.169,201.169,0,0,0,62.71,24.756,194.79,194.79,0,0,0,42.81,4.508q29.059-.3,58.119-.605,18.3-.176,36.608-.263c6.781-.042,13.561-.036,20.342-.07q17.387-.087,34.773-.2l46.057-.262,45.928-.262,46.058-.264,46.059-.262q23.03-.131,46.058-.264,20.4-.122,40.809-.253a5.351,5.351,0,0,1,5.432,6.654,5.242,5.242,0,0,1-4.562,4.1c-1.043.086-2.1.014-3.147.014Z" transform="translate(0.886 13.501)" fill="#fcd126"/><path d="M208.54,391.092c22.673.091,44.271,5.136,65.063,13.938a215.566,215.566,0,0,1,32.373,17.2,5.4,5.4,0,0,1,2.691,3.84,5.179,5.179,0,0,1-2.332,5.457,5.425,5.425,0,0,1-6.062,0c-6.976-3.99-13.832-8.22-20.988-11.856A162.039,162.039,0,0,0,231.437,403.9c-28.391-4.564-55.682-1.01-81.571,11.7-27.895,13.69-48.895,34.619-63.788,61.762a137.9,137.9,0,0,0-15.415,44.477c-4.132,25.43-1.16,49.9,10.382,73.111a118.565,118.565,0,0,0,21.509,29.9,194.491,194.491,0,0,0,31.533,26.59A136.739,136.739,0,0,0,181.959,672a123.176,123.176,0,0,0,32.585,2.557c29.66-1.709,56.272-11.915,80.465-28.863.537-.375,1.051-.785,1.569-1.185a5.512,5.512,0,0,1,7.854.657,5.4,5.4,0,0,1-1.115,7.874c-3.672,2.674-7.386,5.316-11.252,7.7a168.721,168.721,0,0,1-53.944,21.712,146.183,146.183,0,0,1-27.576,3.115c-29.764.542-56.749-8.219-81.466-24.4a185.857,185.857,0,0,1-44.411-40.293A121.538,121.538,0,0,1,59.556,562.7c-3.972-26.363-.066-51.724,10.091-76.207a157.065,157.065,0,0,1,32.382-49.231,149.4,149.4,0,0,1,61.65-39,138.264,138.264,0,0,1,35.429-6.76C202.25,391.322,205.4,391.225,208.54,391.092Z" transform="translate(3.09 3.08)" fill="#fcd126"/><path d="M168.552,718.746a14.242,14.242,0,0,1-2.051-.473c-24.093-9.2-46.842-20.867-67.31-36.7-20.288-15.694-36.966-34.5-49-57.257a170.444,170.444,0,0,1-17.382-51.941,191.585,191.585,0,0,1-2.651-32.365A225.9,225.9,0,0,1,43.35,463.822c.726-2.021,1.712-3.763,3.91-4.42a5.175,5.175,0,0,1,5.626,1.5,5.4,5.4,0,0,1,1.022,5.854c-1.411,4.083-2.864,8.158-4.091,12.3a215.423,215.423,0,0,0-7.609,38.641,204.257,204.257,0,0,0-1.174,25.653c.52,25.507,5.737,49.916,17.211,72.835A158.036,158.036,0,0,0,86.681,655.9c15.413,15.815,33.3,28.221,52.8,38.4a294.963,294.963,0,0,0,30.963,13.838,5.431,5.431,0,0,1-.222,10.313A15.853,15.853,0,0,1,168.552,718.746Z" transform="translate(1.72 6.424)" fill="#fcd126"/><path d="M216.157,352.878c29.537-.016,54.8,5.825,78.716,17.521a195.706,195.706,0,0,1,49.8,35.211,217.118,217.118,0,0,1,34.218,41.978c.738,1.187,1.464,2.384,2.123,3.614a5.438,5.438,0,1,1-9.475,5.339,198.491,198.491,0,0,0-30.431-39.14c-16.847-17.073-35.982-30.881-58.046-40.47a158.619,158.619,0,0,0-43.822-11.959c-23-2.867-45.609-.656-67.945,5.144a249.256,249.256,0,0,0-40.617,14.633c-3.615,1.646-7.3-.145-7.982-3.848a5.357,5.357,0,0,1,3.152-5.891,262.889,262.889,0,0,1,28.5-11.238,222.566,222.566,0,0,1,35.086-8.547A178.845,178.845,0,0,1,216.157,352.878Z" transform="translate(6.264 1.201)" fill="#fcd126"/><path d="M150.356,542.385c-.452,0-2.3,0-2.748,0h-5.391a88.783,88.783,0,0,0,8.387-7.549h8.612v-8.374c1.745-1.792,5.49-6.2,7.432-8.4,0,2.557,0,5.654,0,7.7q-.035,38.389-.045,76.779c0,2.332.1,3.762,3.211,3.751,31.023-.115,62.048-.063,93.071-.111.459,0,1.634.837,1.539-.684.079-1.141.226-2.283.227-3.424.009-23.539-.023-47.079.023-70.618.008-4.465-.371-8.943.243-13.4a72.791,72.791,0,0,1,7.993,7.811c.032,3.058.06,5.909.091,8.967h9.982c1.581,1.621,2.447,2.591,3.791,3.907,1.134,1.057,2.672,2.382,3.79,3.408-5.641,0-10.8,0-16.113.046-2.216.02-1.318.623-1.479,1.413-.024,19.782-.113,39.565-.009,59.347.017,3.379,1.077,6.742.492,10.174-2.183.009-4.368.024-6.552.026l-104.5.077c-.434,0-2.834,0-3.268,0-.085-2.07.077-4.111.084-6.4.044-13.726,0-27.458,0-41.185,0-6.635.034-13.3,0-19.939-.005-1.06,0-2.107,0-3.326C156.453,542.429,153.235,542.385,150.356,542.385Z" transform="translate(7.228 9.32)" fill="#fcd126"/><path d="M300.1,517.917A12.639,12.639,0,0,1,295.929,522c-1.561.968-2.357-.183-3.427-1.15-19.762-17.865-38.383-36.923-57.871-55.073-5.075-4.725-9.942-9.676-14.821-14.605-2.222-2.245-3.739-2.7-6.384-.017-10.953,11.1-22.388,21.709-33.666,32.476q-15.405,14.708-30.593,29.668c-2.989,2.952-6.048,5.834-8.988,8.836-1.158,1.184-2.013,1.27-3.071-.045a14.891,14.891,0,0,0-2.2-2.178c-2.177-1.776-1.833-3.075.237-4.9,4.9-4.314,9.58-8.888,14.28-13.428C162.3,489.155,175.1,476.65,188,464.235c8.26-7.955,16.625-15.8,24.943-23.692a5.7,5.7,0,0,1,7.329-.1q5.212,4.737,10.276,9.636,22.813,21.988,45.6,44c7.527,7.238,15.154,14.371,22.737,21.551A2.839,2.839,0,0,1,300.1,517.917Z" transform="translate(6.795 5.442)" fill="#fcd126"/><path d="M300.1,536.618a12.637,12.637,0,0,1-4.174,4.088c-1.561.968-2.357-.183-3.427-1.15-19.762-17.865-38.383-36.923-57.871-55.072-5.075-4.726-9.942-9.676-14.821-14.606-2.222-2.244-3.739-2.7-6.384-.017-10.953,11.1-22.388,21.709-33.666,32.478q-15.405,14.706-30.593,29.667c-2.989,2.952-6.048,5.836-8.988,8.836-1.158,1.184-2.013,1.27-3.071-.045a14.97,14.97,0,0,0-2.2-2.178c-2.177-1.776-1.833-3.075.237-4.9,4.9-4.314,9.58-8.887,14.28-13.428C162.3,507.857,175.1,495.352,188,482.937c8.26-7.955,16.625-15.8,24.943-23.692a5.7,5.7,0,0,1,7.329-.1q5.212,4.735,10.276,9.635,22.813,21.988,45.6,44c7.527,7.237,15.154,14.37,22.737,21.549A2.841,2.841,0,0,1,300.1,536.618Z" transform="translate(6.795 6.362)" fill="#fcd126"/><path d="M197.031,558.3c.024-2.345-.023-4.884,0-7.228,3.056,0,10.665-.03,13.5,0V547.6c0-4.924-.01-11.283,0-16.217,2.977.012,4.932.073,7.908.086-.006,4.1,0,8.831,0,12.934.087,3.515,0,4.979,0,6.669,7.335,0,9.366,0,15.359,0l-.146,7.228c-1.257-.014-2.952,0-4.2,0H218.442v17.348c.043.167-.049,1.833,0,2-3.27.017-4.638-.134-7.908-.118.015-.353-.093-2.287,0-2.5,0-.22-.009-.517,0-1.454.041-4.129,0-4.906,0-9.062V558.3C207.236,558.322,200.485,558.3,197.031,558.3Z" transform="translate(9.922 9.975)" fill="#fcd126"/><path d="M239.562,554.66c0,7.916.024,15.829-.005,23.745-.015,3.93-.717,4.639-4.632,4.647q-19.467.036-38.935,0c-4.07-.007-4.777-.748-4.78-4.86q-.024-23.743-.006-47.484c0-4.218.836-5.1,4.983-5.111q19.294-.041,38.59,0c3.888.009,4.759.926,4.774,4.969C239.58,538.6,239.559,546.629,239.562,554.66Zm-42.1,4.327-.029,16.908c-.3,2.521,1.668,1.329,2.521,1.337,10.211.091,20.426-.037,30.636.124,2.771.043,3.194-1.045,3.171-3.441-.1-10.772.03-21.546-.083-32.319-.034-3.15.646-6.359-.447-9.465a86.308,86.308,0,0,0-14.428-.141.735.735,0,0,0-.663.014l-8.931-.036c-3.2-.05-6.408-.056-9.609-.17-1.527-.055-2.32.311-2.276,2.063.136,5.485.147,10.972.207,16.46q-.036,3.514-.071,7.032Z" transform="translate(9.635 9.69)" fill="#fcd126"/></g></svg>