<svg xmlns="http://www.w3.org/2000/svg" width="242.6" height="97.543" viewBox="0 0 242.6 97.543"><g transform="translate(4.833 -328.437)"><path d="M152.88,444.089v-.07c.236,0,.473.016.708,0a1.179,1.179,0,0,0,1.026-.921,1.2,1.2,0,0,0-1.221-1.5q-4.588.022-9.175.057-5.177.031-10.356.059l-10.356.059-10.356.059-10.326.059-10.355.059q-3.909.022-7.818.044c-1.525.008-3.049.006-4.574.016q-4.115.025-8.231.059-6.534.062-13.067.136a43.8,43.8,0,0,1-9.625-1.014,45.231,45.231,0,0,1-14.1-5.566,46.944,46.944,0,0,1-15.1-14.876,59.591,59.591,0,0,1-4.355-8.021,1.264,1.264,0,0,0-.748-.747,1.225,1.225,0,0,0-1.511,1.7c.526,1.109,1.041,2.225,1.6,3.314a54.188,54.188,0,0,0,10.775,14.555A46.879,46.879,0,0,0,43.2,442.088a47.847,47.847,0,0,0,15.662,2.566c.992-.005,1.983-.093,2.975-.1,3.491-.031,6.983-.043,10.474-.063l10.237-.059,10.415-.059,10.3-.059,10.415-.059,10.267-.059,10.444-.059c2.576-.015,5.153-.037,7.73-.043C145.7,444.084,149.29,444.089,152.88,444.089Zm-95.268-82.2c-.707.03-1.414.052-2.121.092a31.087,31.087,0,0,0-7.966,1.52,33.591,33.591,0,0,0-13.861,8.768,35.315,35.315,0,0,0-7.281,11.069,31.673,31.673,0,0,0-2.269,17.134,27.326,27.326,0,0,0,5.646,13.079,41.788,41.788,0,0,0,9.985,9.06A31.763,31.763,0,0,0,58.063,428.1a32.862,32.862,0,0,0,6.2-.7,37.934,37.934,0,0,0,12.129-4.882c.869-.535,1.7-1.129,2.53-1.73a1.215,1.215,0,0,0,.251-1.77,1.239,1.239,0,0,0-1.766-.148c-.117.09-.232.182-.353.267a34.51,34.51,0,0,1-18.092,6.49,27.691,27.691,0,0,1-7.326-.575,30.744,30.744,0,0,1-10.764-4.622,43.731,43.731,0,0,1-7.09-5.978,26.129,26.129,0,0,1-7.17-23.162,31.005,31.005,0,0,1,3.466-10A32.37,32.37,0,0,1,44.42,367.4a29.9,29.9,0,0,1,18.34-2.63,36.432,36.432,0,0,1,10.758,3.545c1.609.818,3.151,1.769,4.719,2.666a1.22,1.22,0,0,0,1.363,0,1.164,1.164,0,0,0,.524-1.227,1.215,1.215,0,0,0-.605-.863,48.459,48.459,0,0,0-7.279-3.868A37.609,37.609,0,0,0,57.612,361.891Zm-9.3,74.421a3.576,3.576,0,0,0,.376-.066,1.221,1.221,0,0,0,.05-2.319,66.293,66.293,0,0,1-6.962-3.111,46.184,46.184,0,0,1-11.873-8.635,35.532,35.532,0,0,1-6.394-8.93,37.771,37.771,0,0,1-3.87-16.376,45.923,45.923,0,0,1,.264-5.768,48.433,48.433,0,0,1,1.711-8.688c.276-.931.6-1.847.92-2.765a1.215,1.215,0,0,0-.23-1.316A1.164,1.164,0,0,0,21.042,378a1.386,1.386,0,0,0-.879.994,50.791,50.791,0,0,0-2.966,17.13,43.076,43.076,0,0,0,.6,7.277A38.322,38.322,0,0,0,21.7,415.08a39.628,39.628,0,0,0,11.017,12.874,58.576,58.576,0,0,0,15.134,8.251A3.2,3.2,0,0,0,48.313,436.312Zm11.725-83.435a40.22,40.22,0,0,0-6.009.527,50.05,50.05,0,0,0-7.889,1.922,59.1,59.1,0,0,0-6.407,2.527,1.2,1.2,0,0,0-.709,1.324,1.222,1.222,0,0,0,1.795.865,56.037,56.037,0,0,1,9.132-3.29A40.4,40.4,0,0,1,65.229,355.6a35.662,35.662,0,0,1,9.853,2.689,41.521,41.521,0,0,1,13.051,9.1,44.629,44.629,0,0,1,6.842,8.8,1.223,1.223,0,1,0,2.13-1.2c-.148-.277-.312-.546-.477-.813a48.815,48.815,0,0,0-7.694-9.438,44,44,0,0,0-11.2-7.917A39.02,39.02,0,0,0,60.038,352.876Z" transform="translate(-13.776 -18.674)" fill="#fcd126"/><path d="M-4.833,374.534c.022-.508.048-1.016.066-1.524A47.956,47.956,0,0,1-.531,354.644,47.246,47.246,0,0,1,8.9,341.052a62.6,62.6,0,0,1,15.31-11.212q.585-.312,1.176-.613A1.225,1.225,0,1,1,26.5,331.4c-2.116,1.089-4.18,2.266-6.179,3.557a56.272,56.272,0,0,0-9.545,7.671A44.145,44.145,0,0,0-1.036,363.571a47.246,47.246,0,0,0-1.217,8.09,50.192,50.192,0,0,0,.084,7.717A49.5,49.5,0,0,0,.246,391.242a1.218,1.218,0,0,1-.725,1.566,1.212,1.212,0,0,1-1.575-.754,40.417,40.417,0,0,1-1.471-5.271,54.971,54.971,0,0,1-1.2-9.1c-.035-.746-.041-1.493-.064-2.24a1.044,1.044,0,0,0-.043-.2Z" transform="translate(0 -0.478)" fill="#fcd126"/><path d="M271.831,328.437c.6.173,1.208.332,1.805.522a37.878,37.878,0,0,1,8.954,4.29A50.279,50.279,0,0,1,297,347.463c.438.64.865,1.29,1.271,1.951a1.2,1.2,0,0,1-.252,1.55,1.215,1.215,0,0,1-1.549.027,1.546,1.546,0,0,1-.323-.377,51.863,51.863,0,0,0-7.765-9.649,41.151,41.151,0,0,0-14.569-9.364c-.745-.271-1.514-.484-2.281-.691a1.293,1.293,0,0,1-1.11-1.128,1.23,1.23,0,0,1,.958-1.306l.042-.039Z" transform="translate(-210.319)" fill="#fcd126"/><path d="M152.88,635.3c-3.59,0-7.18-.005-10.769,0-2.577.005-5.153.028-7.73.043l-10.444.059-10.267.059-10.415.059-10.3.059-10.415.059-10.237.059c-3.491.02-6.983.032-10.474.063-.992.009-1.983.1-2.975.1A47.846,47.846,0,0,1,43.2,633.3,46.878,46.878,0,0,1,25.715,622.76,54.188,54.188,0,0,1,14.94,608.2c-.564-1.089-1.079-2.205-1.6-3.314a1.225,1.225,0,0,1,1.511-1.7,1.264,1.264,0,0,1,.748.747,59.594,59.594,0,0,0,4.355,8.021,46.944,46.944,0,0,0,15.1,14.876,45.23,45.23,0,0,0,14.1,5.566,43.8,43.8,0,0,0,9.625,1.014q6.534-.067,13.067-.136,4.115-.04,8.231-.059c1.525-.01,3.049-.008,4.574-.016q3.909-.019,7.818-.044l10.355-.059,10.326-.059,10.356-.059,10.356-.059,10.356-.059q4.588-.028,9.175-.057a1.2,1.2,0,0,1,1.221,1.5,1.179,1.179,0,0,1-1.026.921c-.234.019-.472,0-.708,0Z" transform="translate(-13.776 -209.884)" fill="#fcd126"/><path d="M91.868,391.092a37.609,37.609,0,0,1,14.629,3.134,48.459,48.459,0,0,1,7.279,3.868,1.215,1.215,0,0,1,.605.863,1.164,1.164,0,0,1-.524,1.227,1.22,1.22,0,0,1-1.363,0c-1.568-.9-3.11-1.848-4.719-2.666a36.432,36.432,0,0,0-10.758-3.545,29.9,29.9,0,0,0-18.34,2.63,32.369,32.369,0,0,0-14.342,13.887,31.005,31.005,0,0,0-3.466,10,26.129,26.129,0,0,0,7.17,23.162,43.728,43.728,0,0,0,7.09,5.978,30.744,30.744,0,0,0,10.764,4.622,27.694,27.694,0,0,0,7.326.575,34.511,34.511,0,0,0,18.092-6.49c.121-.085.236-.176.353-.267a1.239,1.239,0,0,1,1.766.148,1.215,1.215,0,0,1-.251,1.77c-.826.6-1.661,1.2-2.53,1.73A37.934,37.934,0,0,1,98.518,456.6a32.87,32.87,0,0,1-6.2.7A31.763,31.763,0,0,1,74,451.814a41.788,41.788,0,0,1-9.985-9.06,27.326,27.326,0,0,1-5.646-13.079,31.673,31.673,0,0,1,2.269-17.134,35.314,35.314,0,0,1,7.281-11.069A33.59,33.59,0,0,1,81.781,392.7a31.085,31.085,0,0,1,7.966-1.52C90.453,391.144,91.161,391.122,91.868,391.092Z" transform="translate(-48.032 -47.875)" fill="#fcd126"/><path d="M61.272,517.5a3.2,3.2,0,0,1-.461-.106,58.577,58.577,0,0,1-15.134-8.251A39.629,39.629,0,0,1,34.66,496.267a38.322,38.322,0,0,1-3.908-11.678,43.076,43.076,0,0,1-.6-7.277,50.791,50.791,0,0,1,2.966-17.13,1.386,1.386,0,0,1,.879-.994,1.164,1.164,0,0,1,1.265.337,1.215,1.215,0,0,1,.23,1.316c-.317.918-.644,1.834-.92,2.765a48.434,48.434,0,0,0-1.711,8.688,45.923,45.923,0,0,0-.264,5.768,37.771,37.771,0,0,0,3.87,16.376,35.533,35.533,0,0,0,6.394,8.93A46.184,46.184,0,0,0,54.737,512a66.318,66.318,0,0,0,6.962,3.111,1.221,1.221,0,0,1-.05,2.319A3.568,3.568,0,0,1,61.272,517.5Z" transform="translate(-26.735 -99.861)" fill="#fcd126"/><path d="M143.64,352.876a39.02,39.02,0,0,1,17.7,3.939,44,44,0,0,1,11.2,7.917,48.816,48.816,0,0,1,7.694,9.438c.166.267.329.536.477.813a1.223,1.223,0,1,1-2.13,1.2,44.628,44.628,0,0,0-6.842-8.8,41.521,41.521,0,0,0-13.051-9.1,35.662,35.662,0,0,0-9.853-2.689,40.4,40.4,0,0,0-15.277,1.157,56.037,56.037,0,0,0-9.132,3.29,1.222,1.222,0,0,1-1.795-.865,1.2,1.2,0,0,1,.709-1.324,59.1,59.1,0,0,1,6.407-2.527,50.05,50.05,0,0,1,7.889-1.922A40.22,40.22,0,0,1,143.64,352.876Z" transform="translate(-97.378 -18.674)" fill="#fcd126"/><path d="M144.048,523.527h-1.83a19.938,19.938,0,0,0,1.886-1.7h1.936v-1.883c.392-.4,1.234-1.394,1.671-1.889,0,.575,0,1.271,0,1.732q-.008,8.631-.01,17.263c0,.524.022.846.722.843,6.975-.026,13.951-.014,20.926-.025.1,0,.367.188.346-.154.018-.257.051-.513.051-.77,0-5.292-.005-10.585.005-15.878a22.212,22.212,0,0,1,.055-3.012,16.365,16.365,0,0,1,1.8,1.756c.007.688.013,1.329.021,2.016h2.244c.355.364.55.583.852.878.255.238.6.536.852.766-1.268,0-2.428,0-3.623.01-.5,0-.3.14-.333.318-.005,4.448-.025,8.9,0,13.344a12.9,12.9,0,0,1,.111,2.287c-.491,0-.982.005-1.473.006l-23.5.017h-.735c-.019-.465.017-.924.019-1.438.01-3.086,0-6.174,0-9.26,0-1.492.008-2.991,0-4.483,0-.238,0-.474,0-.748C145.419,523.537,144.7,523.527,144.048,523.527Z" transform="translate(-112.363 -144.891)" fill="#fcd126"/><path d="M170.9,456.867a2.842,2.842,0,0,1-.938.919c-.351.218-.53-.041-.77-.259-4.443-4.017-8.63-8.3-13.012-12.383-1.141-1.062-2.235-2.176-3.332-3.284-.5-.5-.841-.606-1.435,0-2.463,2.5-5.034,4.881-7.569,7.3q-3.464,3.307-6.879,6.67c-.672.664-1.36,1.312-2.021,1.987-.26.266-.453.285-.69-.01a3.35,3.35,0,0,0-.5-.49c-.489-.4-.412-.691.053-1.1,1.1-.97,2.154-2,3.211-3.019,2.894-2.8,5.774-5.608,8.673-8.4,1.857-1.789,3.738-3.552,5.608-5.327a1.283,1.283,0,0,1,1.648-.022q1.172,1.065,2.311,2.167,5.129,4.944,10.252,9.894c1.692,1.627,3.407,3.231,5.112,4.845A.638.638,0,0,1,170.9,456.867Z" transform="translate(-105.644 -84.604)" fill="#fcd126"/><path d="M170.9,475.57a2.842,2.842,0,0,1-.938.919c-.351.218-.53-.041-.77-.259-4.443-4.017-8.63-8.3-13.012-12.382-1.141-1.063-2.235-2.176-3.332-3.284-.5-.5-.841-.606-1.435,0-2.463,2.495-5.034,4.881-7.569,7.3q-3.464,3.307-6.879,6.67c-.672.664-1.36,1.312-2.021,1.987-.26.266-.453.285-.69-.01a3.363,3.363,0,0,0-.5-.49c-.489-.4-.412-.691.053-1.1,1.1-.97,2.154-2,3.211-3.019,2.894-2.8,5.774-5.608,8.673-8.4,1.857-1.789,3.738-3.552,5.608-5.327a1.283,1.283,0,0,1,1.648-.022q1.172,1.065,2.311,2.166,5.129,4.944,10.252,9.894c1.692,1.627,3.407,3.231,5.112,4.845A.639.639,0,0,1,170.9,475.57Z" transform="translate(-105.644 -98.895)" fill="#fcd126"/><path d="M197.027,537.435c.005-.527-.005-1.1,0-1.625.687,0,2.4-.007,3.036,0v-.78c0-1.107,0-2.537,0-3.646.669,0,1.109.016,1.778.019,0,.923,0,1.986,0,2.908.02.79,0,1.12,0,1.5h3.453l-.033,1.625c-.283,0-.664,0-.945,0h-2.476v3.9c.01.037-.011.412,0,.449-.735,0-1.043-.03-1.778-.026,0-.079-.021-.514,0-.561,0-.049,0-.116,0-.327.009-.928,0-1.1,0-2.038v-1.4C199.321,537.44,197.8,537.435,197.027,537.435Z" transform="translate(-154.242 -155.073)" fill="#fcd126"/><path d="M202.071,532.117c0,1.78.005,3.559,0,5.339,0,.884-.161,1.043-1.041,1.045q-4.377.008-8.754,0c-.915,0-1.074-.168-1.075-1.093q-.005-5.338,0-10.676c0-.948.188-1.147,1.12-1.149q4.338-.009,8.676,0c.874,0,1.07.208,1.073,1.117C202.075,528.506,202.07,530.312,202.071,532.117Zm-9.466.973-.007,3.8c-.068.567.375.3.567.3,2.3.021,4.593-.008,6.888.028.623.01.718-.235.713-.774-.023-2.422.007-4.844-.019-7.267a6.39,6.39,0,0,0-.1-2.128,19.392,19.392,0,0,0-3.244-.032.165.165,0,0,0-.149,0l-2.008-.008c-.72-.011-1.441-.013-2.161-.038-.343-.012-.522.07-.512.464.031,1.233.033,2.467.046,3.7q-.008.79-.016,1.581Z" transform="translate(-149.788 -150.638)" fill="#fcd126"/><path d="M367.438,647.4a.481.481,0,0,1,.121.121.247.247,0,0,1,.047.14.238.238,0,0,1-.054.157l-.356.574a.309.309,0,0,1-.235.157.28.28,0,0,1-.1-.023.647.647,0,0,1-.131-.075,4.006,4.006,0,0,0-1.017-.509,4.339,4.339,0,0,0-1.124-.208,4.139,4.139,0,0,0-1.6.3,4.048,4.048,0,0,0-1.266.815,3.763,3.763,0,0,0-.836,1.188,3.451,3.451,0,0,0-.3,1.425,3.493,3.493,0,0,0,.309,1.471,3.675,3.675,0,0,0,.829,1.165,3.781,3.781,0,0,0,1.208.763,3.938,3.938,0,0,0,2,.235,3.2,3.2,0,0,0,.561-.134,5.147,5.147,0,0,0,.594-.241,7.074,7.074,0,0,0,.658-.362.456.456,0,0,1,.208-.072q.121,0,.222.163l.383.614a.325.325,0,0,1,.047.156.276.276,0,0,1-.161.248,5.29,5.29,0,0,1-1.39.695,5.175,5.175,0,0,1-1.638.251,5.232,5.232,0,0,1-1.366-.177,5.071,5.071,0,0,1-1.222-.5,5.177,5.177,0,0,1-1.034-.78,4.988,4.988,0,0,1-.8-1,4.875,4.875,0,0,1-.514-1.187,4.865,4.865,0,0,1,.517-3.84,5.133,5.133,0,0,1,.8-1.011,4.984,4.984,0,0,1,1.038-.779,5.318,5.318,0,0,1,1.225-.5,5.335,5.335,0,0,1,2.958.062A5.4,5.4,0,0,1,367.438,647.4Z" transform="translate(-278.233 -242.998)" fill="#2fd1bd" stroke="#2fd1bd" stroke-miterlimit="10" stroke-width="1"/><path d="M407.508,655.427a.289.289,0,0,1,.3.306v.673a.283.283,0,0,1-.3.287H401.8a.257.257,0,0,1-.3-.287v-9.115a.283.283,0,0,1,.081-.2.3.3,0,0,1,.228-.085h.691a.316.316,0,0,1,.212.071.268.268,0,0,1,.084.215v8.136Z" transform="translate(-310.487 -243.421)" fill="#2fd1bd" stroke="#2fd1bd" stroke-miterlimit="10" stroke-width="1"/><path d="M440.884,647a.275.275,0,0,1,.309.313v.646a.323.323,0,0,1-.077.215.3.3,0,0,1-.245.091h-5.412v2.682h4.257a.327.327,0,0,1,.208.068.278.278,0,0,1,.087.232v.665a.324.324,0,0,1-.074.209.268.268,0,0,1-.222.091h-4.257v3.21H440.9a.272.272,0,0,1,.309.306v.673a.257.257,0,0,1-.3.287h-6.46q-.3,0-.3-.274V647.3a.263.263,0,0,1,.3-.3Z" transform="translate(-335.436 -243.421)" fill="#2fd1bd" stroke="#2fd1bd" stroke-miterlimit="10" stroke-width="1"/><path d="M469.69,656.451a.42.42,0,0,1-.134.176.361.361,0,0,1-.222.065h-.712q-.309,0-.309-.229a.645.645,0,0,1,0-.075l.01-.056.013-.045,3.875-9.043c.009-.021.02-.047.033-.075a.3.3,0,0,1,.054-.078.27.27,0,0,1,.1-.062.465.465,0,0,1,.171-.026h.443a.443.443,0,0,1,.165.026.275.275,0,0,1,.1.062.311.311,0,0,1,.054.078c.013.028.025.053.034.075l3.841,9.043.013.065c0,.022.009.043.013.062l.007.049q0,.229-.309.229h-.712a.361.361,0,0,1-.222-.065.418.418,0,0,1-.134-.176l-.739-1.794h-4.714q-.235.581-.43,1.05T469.69,656.451Zm1.256-3.06h3.66l-1.813-4.463Z" transform="translate(-361.537 -243.421)" fill="#2fd1bd" stroke="#2fd1bd" stroke-miterlimit="10" stroke-width="1"/><path d="M519.977,656.693a.312.312,0,0,1-.255-.144l-5.862-7.634v7.49q0,.287-.309.287h-.678a.257.257,0,0,1-.3-.287v-9.1a.3.3,0,0,1,.081-.215.283.283,0,0,1,.215-.085h.9a.336.336,0,0,1,.282.143l5.714,7.379v-7.281a.265.265,0,0,1,.3-.241h.678a.366.366,0,0,1,.225.078.247.247,0,0,1,.1.208v9.115q0,.287-.329.287Z" transform="translate(-395.359 -243.421)" fill="#2fd1bd" stroke="#2fd1bd" stroke-miterlimit="10" stroke-width="1"/><path d="M557.637,647.291a.291.291,0,0,1,.077-.2.282.282,0,0,1,.218-.085h.7a.325.325,0,0,1,.215.078.256.256,0,0,1,.094.208v9.115q0,.287-.309.287h-.7a.257.257,0,0,1-.3-.287Z" transform="translate(-429.789 -243.421)" fill="#2fd1bd" stroke="#2fd1bd" stroke-miterlimit="10" stroke-width="1"/><path d="M579.754,656.693a.312.312,0,0,1-.255-.144l-5.862-7.634v7.49q0,.287-.309.287h-.678a.257.257,0,0,1-.3-.287v-9.1a.3.3,0,0,1,.081-.215.283.283,0,0,1,.215-.085h.9a.336.336,0,0,1,.282.143l5.714,7.379v-7.281a.266.266,0,0,1,.3-.241h.678a.366.366,0,0,1,.225.078.248.248,0,0,1,.1.208v9.115q0,.287-.329.287Z" transform="translate(-441.035 -243.421)" fill="#2fd1bd" stroke="#2fd1bd" stroke-miterlimit="10" stroke-width="1"/><path d="M623.042,652.277a.258.258,0,0,1,.3-.287h.692a.335.335,0,0,1,.215.075.255.255,0,0,1,.094.212v2.916a.324.324,0,0,1-.034.147.27.27,0,0,1-.114.114l-.054.039a5.011,5.011,0,0,1-1.39.682,5.447,5.447,0,0,1-1.638.238,5.234,5.234,0,0,1-1.367-.177,5.076,5.076,0,0,1-1.222-.5,5.179,5.179,0,0,1-1.034-.78,4.983,4.983,0,0,1-.8-1,4.883,4.883,0,0,1-.514-1.187,4.823,4.823,0,0,1-.181-1.328,4.765,4.765,0,0,1,.181-1.318,4.877,4.877,0,0,1,.517-1.187,5.144,5.144,0,0,1,1.836-1.794,5.258,5.258,0,0,1,4.18-.44,5.421,5.421,0,0,1,1.43.7.48.48,0,0,1,.121.121.247.247,0,0,1,.047.14.237.237,0,0,1-.054.157l-.356.574a.309.309,0,0,1-.235.157.283.283,0,0,1-.1-.023.656.656,0,0,1-.131-.075,4.256,4.256,0,0,0-1.051-.525,3.751,3.751,0,0,0-1.212-.192,3.827,3.827,0,0,0-1.541.307,3.958,3.958,0,0,0-1.229.822,3.82,3.82,0,0,0-.816,1.187,3.447,3.447,0,0,0-.3,1.4,3.514,3.514,0,0,0,.3,1.452,3.735,3.735,0,0,0,.819,1.174,3.85,3.85,0,0,0,1.205.786,3.765,3.765,0,0,0,1.467.287,3.246,3.246,0,0,0,.977-.153q.487-.153.99-.362Z" transform="translate(-474.379 -242.998)" fill="#2fd1bd" stroke="#2fd1bd" stroke-miterlimit="10" stroke-width="1"/><path d="M606.873,504.3c0-5.9,0-11.768,0-17.632,0-1.1-.125-.932.944-.942q1.281-.012,2.562,0c1.009.009.922-.165.923.89q0,11.2,0,22.391c0,2.583-.016,5.166.012,7.748.006.526-.12.688-.663.67-1.3-.043-2.61-.035-3.914,0-.446.011-.6-.144-.709-.56q-2.884-10.725-5.8-21.441a.9.9,0,0,0-.263-.466v.7c0,7.013-.008,14.027.015,21.041,0,.6-.15.76-.74.731-1.041-.052-2.088-.044-3.13,0-.506.02-.624-.136-.621-.628.021-3.578.011-7.156.01-10.733,0-6.54.008-13.079-.014-19.619,0-.6.167-.748.751-.733q2.418.062,4.839,0c.538-.014.722.18.851.665q2.276,8.536,4.594,17.06A1.565,1.565,0,0,0,606.873,504.3Z" transform="translate(-458.711 -120.17)" fill="#2fd1bd" stroke="#2fd1bd" stroke-miterlimit="10" stroke-width="1"/><path d="M524.854,504.256c0-5.926.01-11.851-.014-17.777,0-.607.113-.83.768-.791,1.041.062,2.088.038,3.131.007.442-.013.561.129.556.562-.022,1.944-.01,3.887-.01,5.831q0,12.266.013,24.532c0,.587-.081.826-.752.79-1.23-.067-2.468-.044-3.7-.007a.713.713,0,0,1-.859-.641q-2.815-10.526-5.679-21.039a2.022,2.022,0,0,0-.36-.783q0,.359,0,.718c0,6.992-.009,13.985.015,20.977,0,.622-.138.811-.773.773a26.424,26.424,0,0,0-2.988,0c-.589.031-.741-.129-.739-.727q.034-11.733.015-23.466c0-2.3.016-4.6-.012-6.9-.006-.511.152-.63.64-.622,1.661.029,3.323.034,4.983,0,.5-.011.685.152.811.623q2.319,8.676,4.678,17.342c.054.2.121.4.182.6Z" transform="translate(-396.035 -120.155)" fill="#2fd1bd" stroke="#2fd1bd" stroke-miterlimit="10" stroke-width="1"/><path d="M359.313,501.537c0-5.047.01-10.093-.013-15.14,0-.559.138-.727.705-.712,2.8.072,5.6-.13,8.392.11a6.2,6.2,0,0,1,6.067,5.93,18.407,18.407,0,0,1,.139,2.125c.012,5.189,0,10.378.008,15.566a13.443,13.443,0,0,1-.287,2.822,6.069,6.069,0,0,1-5.528,5.024c-3.026.289-6.068.062-9.1.124-.551.011-.374-.38-.374-.639q-.014-5.615-.007-11.231Q359.313,503.527,359.313,501.537Zm4.96,0c0,3.551.01,7.1-.011,10.654,0,.509.1.727.658.686.731-.053,1.47.007,2.2-.029a2.28,2.28,0,0,0,2.472-2.363,8.379,8.379,0,0,0,.028-.851q0-7.92,0-15.839a7.657,7.657,0,0,0-.122-1.625,2.169,2.169,0,0,0-2.276-1.919c-.758-.022-1.521.041-2.274-.018-.6-.046-.694.19-.691.721C364.283,494.479,364.272,498.006,364.273,501.534Z" transform="translate(-278.232 -120.146)" fill="#2fd1bd" stroke="#2fd1bd" stroke-miterlimit="10" stroke-width="1"/><path d="M435.87,499.261c.042-1.954-.152-5.132.067-8.3.277-4,2.952-6.479,6.974-6.6a9.844,9.844,0,0,1,3.307.361c3,.954,4.321,3.2,4.661,6.163a22.111,22.111,0,0,1,.106,2.483q.013,7.5,0,15a12.625,12.625,0,0,1-.312,3.1,6.488,6.488,0,0,1-5.947,5.174,10.047,10.047,0,0,1-2.908-.039,6.654,6.654,0,0,1-5.892-6.529c-.027-.354-.057-.709-.058-1.064C435.868,506.167,435.87,503.324,435.87,499.261Zm4.955,1.249h0c0,2.748-.005,5.5,0,8.243a8.755,8.755,0,0,0,.113,1.485,2.28,2.28,0,0,0,2.392,1.985,2.317,2.317,0,0,0,2.537-1.906,7.931,7.931,0,0,0,.141-1.766q0-8.065-.007-16.131a9.632,9.632,0,0,0-.124-1.555,2.24,2.24,0,0,0-2.151-2c-1.794-.193-2.9.9-2.908,2.909C440.815,494.683,440.825,497.6,440.825,500.509Z" transform="translate(-336.716 -119.137)" fill="#2fd1bd" stroke="#2fd1bd" stroke-miterlimit="10" stroke-width="1"/><path d="M687.2,517.429h-.854c-1.671,0-1.666,0-1.9-1.677-.169-1.2-.367-2.388-.524-3.586-.049-.377-.184-.516-.578-.511-1.708.02-3.418.03-5.125,0-.537-.01-.547.309-.6.669-.224,1.523-.478,3.042-.665,4.57-.059.478-.255.554-.672.545q-1.708-.036-3.417,0c-.421.009-.583-.055-.5-.54q1.89-11.643,3.75-23.29c.394-2.456.8-4.909,1.174-7.368.059-.39.193-.506.578-.5q3.132.024,6.265,0c.426,0,.555.142.62.553q2.438,15.333,4.911,30.66c.058.362.024.512-.393.492C688.573,517.405,687.884,517.429,687.2,517.429Zm-6.4-25.814a2.834,2.834,0,0,0-.143.392c-.746,4.985-1.483,9.971-2.243,14.953-.069.452.126.456.451.453,1.209-.009,2.419-.027,3.627.008.529.015.673-.077.583-.66C682.3,501.757,681.565,496.747,680.8,491.615Z" transform="translate(-517.432 -120.191)" fill="#2fd1bd" stroke="#2fd1bd" stroke-miterlimit="10" stroke-width="1"/><path d="M794.567,502.143a12.946,12.946,0,0,1,2.069.973,5.488,5.488,0,0,1,2.23,4.114,58.338,58.338,0,0,1,.115,6.11,8.2,8.2,0,0,0,.742,4.062h-1.055c-1.25,0-1.249,0-1.543-1.2a10.276,10.276,0,0,1-.226-2.4c-.01-1.659.008-3.318-.007-4.978-.035-3.875-1.68-5.516-5.574-5.57-1.02-.014-2.042.026-3.061-.014-.524-.021-.621.182-.619.654.016,4.266,0,8.534.027,12.8,0,.607-.166.745-.747.727-1.331-.043-1.332-.012-1.332-1.333q0-14.756-.02-29.511c0-.749.215-.894.907-.872,2.253.072,4.511-.086,6.761.085,3.189.243,5.031,1.873,5.546,5a21.974,21.974,0,0,1,.036,6.732A5.229,5.229,0,0,1,794.567,502.143Zm-6.92-7.627c0,2.085,0,4.17,0,6.254,0,.228-.133.569.315.558a25.5,25.5,0,0,0,5.738-.3,3.691,3.691,0,0,0,3.007-3.2,21.5,21.5,0,0,0-.033-6.721,3.822,3.822,0,0,0-4-3.417c-1.468-.065-2.941-.013-4.41-.052-.491-.013-.644.124-.638.628C787.663,490.347,787.647,492.432,787.647,494.516Z" transform="translate(-603.952 -120.166)" fill="#2fd1bd" stroke="#2fd1bd" stroke-miterlimit="10" stroke-width="1"/><path d="M960.055,502.178l2.477-6.793c1.078-2.956,2.176-5.9,3.214-8.874.224-.639.5-.939,1.193-.835a8.291,8.291,0,0,0,1.147.009c-.6,1.647-1.167,3.22-1.743,4.79q-2.592,7.061-5.193,14.119a3.509,3.509,0,0,0-.212,1.248c.01,3.626-.007,7.253.019,10.879,0,.54-.143.674-.672.663-1.434-.03-1.435,0-1.435-1.444,0-3.342,0-6.684.005-10.026a3.9,3.9,0,0,0-.241-1.383c-2.211-6.043-4.4-12.092-6.623-18.131-.221-.6-.155-.753.509-.732,1.42.045,1.421.012,1.9,1.335q2.643,7.269,5.289,14.536C959.769,501.75,959.779,502.005,960.055,502.178Z" transform="translate(-731.034 -120.133)" fill="#2fd1bd" stroke="#2fd1bd" stroke-miterlimit="10" stroke-width="1"/><path d="M885.707,502.507c0-4.717-.008-9.434.012-14.151,0-.535-.1-.726-.688-.712-1.731.043-3.465,0-5.2.025-.434.006-.563-.111-.565-.553-.006-1.386-.026-1.386,1.359-1.386,4.3,0,8.591.011,12.886-.013.569,0,.787.106.762.726-.047,1.216-.01,1.217-1.253,1.217h-4.2c-1.027,0-1.027,0-1.027.992q0,13.973.018,27.946c0,.708-.194.865-.863.835-1.245-.056-1.247-.016-1.247-1.273Q885.707,509.333,885.707,502.507Z" transform="translate(-675.552 -120.179)" fill="#2fd1bd" stroke="#2fd1bd" stroke-miterlimit="10" stroke-width="1"/><path d="M861.786,501.568c0,5.024-.009,10.048.012,15.072,0,.557-.08.779-.712.754-1.37-.054-1.372-.014-1.372-1.371q0-14.717-.014-29.433c0-.673.094-.97.871-.921,1.211.077,1.214.019,1.214,1.253Z" transform="translate(-660.6 -120.139)" fill="#2fd1bd" stroke="#2fd1bd" stroke-miterlimit="10" stroke-width="1"/></g></svg>