<svg xmlns="http://www.w3.org/2000/svg" width="991.439" height="664.059" viewBox="0 0 991.439 664.059"><g transform="translate(886.932 -327.937)"><path d="M81.115,972.907v-.473c1.6,0,3.217.111,4.81-.021a8.011,8.011,0,0,0,6.972-6.26,8.178,8.178,0,0,0-8.3-10.169q-31.186.151-62.369.386-35.2.211-70.394.4t-70.394.4l-70.393.4q-35.1.2-70.192.4-35.2.2-70.393.4-26.573.149-53.146.3c-10.363.053-20.727.043-31.09.107q-27.975.168-55.95.4-44.412.423-88.826.925a297.712,297.712,0,0,1-65.428-6.89,307.466,307.466,0,0,1-95.843-37.836c-42.213-25.59-75.882-59.874-102.674-101.124a404.736,404.736,0,0,1-29.6-54.525,8.605,8.605,0,0,0-5.083-5.078,7.937,7.937,0,0,0-8.834,2.075,7.95,7.95,0,0,0-1.442,9.465c3.573,7.539,7.073,15.124,10.91,22.529,19.115,36.891,43.021,70.253,73.244,98.938A318.663,318.663,0,0,0-664.477,959.3a325.254,325.254,0,0,0,106.463,17.439c6.743-.037,13.482-.633,20.226-.694,23.73-.208,47.463-.3,71.2-.43l69.589-.4,70.8-.4,69.994-.4q35.4-.2,70.794-.4l69.792-.4q35.5-.2,71-.4c17.513-.1,35.028-.253,52.543-.29C32.313,972.87,56.713,972.907,81.115,972.907ZM-566.479,414.155c-4.806.2-9.615.351-14.417.624a211.327,211.327,0,0,0-54.148,10.331c-36.409,11.951-67.665,32.082-94.222,59.6a240.03,240.03,0,0,0-49.493,75.243c-15.522,37.419-21.491,76.18-15.421,116.472A185.734,185.734,0,0,0-755.8,765.335a284.054,284.054,0,0,0,67.875,61.583c37.776,24.732,79.02,38.123,124.509,37.294a223.406,223.406,0,0,0,42.146-4.761,257.858,257.858,0,0,0,82.446-33.184c5.909-3.637,11.585-7.674,17.2-11.762a8.258,8.258,0,0,0,1.7-12.034c-2.925-3.633-8.048-4.06-12-1-.794.612-1.579,1.238-2.4,1.812-36.976,25.9-77.649,41.5-122.981,44.113a188.254,188.254,0,0,1-49.8-3.908c-26.486-5.574-50.705-16.466-73.167-31.419a297.323,297.323,0,0,1-48.194-40.639,181.209,181.209,0,0,1-32.873-45.7c-17.641-35.479-22.181-72.873-15.868-111.74a210.765,210.765,0,0,1,23.56-67.976c22.763-41.485,54.858-73.471,97.492-94.4,39.569-19.42,81.279-24.851,124.671-17.876a247.65,247.65,0,0,1,73.128,24.1c10.939,5.558,21.416,12.023,32.079,18.121,3.128,1.789,6.238,1.987,9.263,0a7.914,7.914,0,0,0,3.564-8.34,8.258,8.258,0,0,0-4.113-5.869,329.5,329.5,0,0,0-49.475-26.291C-498.817,422-531.826,414.294-566.479,414.155Zm-63.211,505.884a24.366,24.366,0,0,0,2.559-.446,8.132,8.132,0,0,0,5.849-7.349,8.13,8.13,0,0,0-5.51-8.414,450.752,450.752,0,0,1-47.322-21.15c-29.813-15.563-57.148-34.524-80.7-58.7a241.611,241.611,0,0,1-43.461-60.7c-17.537-35.03-25.51-72.335-26.3-111.318a311.851,311.851,0,0,1,1.793-39.207,329.382,329.382,0,0,1,11.63-59.058c1.874-6.326,4.1-12.554,6.252-18.794,1.148-3.324.85-6.339-1.562-8.948a7.909,7.909,0,0,0-8.6-2.29c-3.359,1-4.865,3.667-5.976,6.755a345.253,345.253,0,0,0-20.164,116.442,292.8,292.8,0,0,0,4.052,49.466,260.538,260.538,0,0,0,26.566,79.385c18.392,34.787,43.881,63.524,74.889,87.51,31.282,24.2,66.054,42.034,102.875,56.09A21.8,21.8,0,0,0-629.689,920.039Zm79.7-567.159c-10.746-.079-25.837,1.241-40.847,3.584a340.206,340.206,0,0,0-53.624,13.064A401.792,401.792,0,0,0-688.01,386.7a8.188,8.188,0,0,0-4.817,9c1.036,5.66,6.674,8.4,12.2,5.882a380.874,380.874,0,0,1,62.076-22.364c34.138-8.864,68.69-12.244,103.846-7.862a242.446,242.446,0,0,1,66.976,18.278c33.721,14.656,62.966,35.759,88.714,61.853,17.861,18.1,33.646,37.826,46.509,59.82a8.293,8.293,0,0,0,11.269,3.29,8.364,8.364,0,0,0,3.212-11.45c-1.007-1.881-2.118-3.71-3.244-5.524a331.854,331.854,0,0,0-52.3-64.157c-22.651-21.785-47.84-39.986-76.114-53.814C-466.226,361.782-504.842,352.855-549.987,352.879Z" transform="translate(10.88 14.748)" fill="#0ea08b" stroke="#0ea08b" stroke-miterlimit="10" stroke-width="1"/><path d="M-886.432,638.165c.151-3.452.324-6.9.449-10.36,1.575-43.467,10.7-85.194,28.8-124.849,15.81-34.651,37.435-65.268,64.12-92.388,30.557-31.056,65.77-55.737,104.071-76.213q3.973-2.124,7.993-4.169c4.591-2.344,9.491-.925,11.675,3.356,2.2,4.307.524,9.061-4.106,11.444-14.382,7.4-28.414,15.406-42,24.182a382.5,382.5,0,0,0-64.885,52.145c-39.705,40.138-66.936,87.334-80.3,142.327a321.306,321.306,0,0,0-8.272,54.995,341.2,341.2,0,0,0,.568,52.456c2.433,27.488,7.387,54.488,16.423,80.647a8.281,8.281,0,0,1-4.929,10.647,8.236,8.236,0,0,1-10.707-5.123,274.766,274.766,0,0,1-10-35.83,373.681,373.681,0,0,1-8.159-61.891c-.237-5.07-.281-10.15-.436-15.225a7.1,7.1,0,0,0-.3-1.336Z" transform="translate(0 0.377)" fill="#0ea08b" stroke="#0ea08b" stroke-miterlimit="10" stroke-width="1"/><path d="M-601.551,328.437c4.091,1.177,8.213,2.259,12.268,3.55,21.644,6.884,41.787,16.941,60.867,29.163,39.467,25.279,71.554,58.065,97.925,96.621,2.979,4.353,5.878,8.768,8.636,13.262a8.144,8.144,0,0,1-1.709,10.536,8.261,8.261,0,0,1-10.529.186,10.576,10.576,0,0,1-2.2-2.564A352.519,352.519,0,0,0-489.07,413.6c-28.763-27.806-61.24-49.894-99.036-63.65-5.067-1.846-10.293-3.289-15.5-4.7-4.564-1.235-7.216-3.779-7.546-7.671a8.363,8.363,0,0,1,6.51-8.88l.285-.263Z" transform="translate(166.106)" fill="#0ea08b" stroke="#0ea08b" stroke-miterlimit="10" stroke-width="1"/><path d="M81.115,821.893c-24.4,0-48.8-.037-73.2.013-17.515.037-35.03.191-52.543.29q-35.5.2-71,.4l-69.792.4q-35.4.2-70.794.4l-69.994.4-70.8.4-69.589.4c-23.733.135-47.466.221-71.2.43-6.744.061-13.484.657-20.226.694a325.254,325.254,0,0,1-106.463-17.439,318.663,318.663,0,0,1-118.829-71.635c-30.222-28.685-54.129-62.047-73.244-98.938-3.837-7.4-7.338-14.989-10.91-22.529a7.95,7.95,0,0,1,1.442-9.465,7.937,7.937,0,0,1,8.834-2.075,8.6,8.6,0,0,1,5.083,5.078,404.732,404.732,0,0,0,29.6,54.525c26.792,41.25,60.461,75.534,102.674,101.124a307.466,307.466,0,0,0,95.843,37.836,297.712,297.712,0,0,0,65.428,6.89q44.412-.452,88.826-.925,27.975-.269,55.95-.4c10.363-.064,20.727-.054,31.09-.107q26.573-.132,53.146-.3,35.2-.2,70.393-.4,35.095-.2,70.192-.4l70.393-.4q35.2-.2,70.394-.4t70.394-.4q31.184-.188,62.369-.386a8.178,8.178,0,0,1,8.3,10.169,8.011,8.011,0,0,1-6.972,6.26c-1.594.132-3.207.021-4.81.021Z" transform="translate(10.88 165.763)" fill="#0ea08b" stroke="#0ea08b" stroke-miterlimit="10" stroke-width="1"/><path d="M-593.534,391.092c34.653.139,67.662,7.849,99.441,21.3a329.5,329.5,0,0,1,49.475,26.291,8.258,8.258,0,0,1,4.113,5.869,7.914,7.914,0,0,1-3.564,8.34c-3.026,1.984-6.135,1.786-9.263,0-10.663-6.1-21.14-12.563-32.079-18.121a247.65,247.65,0,0,0-73.128-24.1c-43.392-6.975-85.1-1.544-124.671,17.876-42.633,20.924-74.729,52.91-97.492,94.4a210.764,210.764,0,0,0-23.56,67.976c-6.313,38.867-1.773,76.262,15.868,111.74a181.209,181.209,0,0,0,32.873,45.7A297.323,297.323,0,0,0-707.326,789c22.462,14.953,46.681,25.845,73.167,31.419a188.254,188.254,0,0,0,49.8,3.908c45.332-2.612,86-18.211,122.981-44.113.819-.574,1.605-1.2,2.4-1.812,3.954-3.056,9.077-2.63,12,1a8.258,8.258,0,0,1-1.7,12.034c-5.612,4.087-11.289,8.125-17.2,11.762a257.858,257.858,0,0,1-82.446,33.184,223.406,223.406,0,0,1-42.146,4.761c-45.489.829-86.732-12.562-124.509-37.294a284.054,284.054,0,0,1-67.875-61.583,185.734,185.734,0,0,1-38.379-88.905c-6.071-40.292-.1-79.053,15.421-116.472a240.031,240.031,0,0,1,49.493-75.243c26.557-27.522,57.814-47.654,94.222-59.6a211.327,211.327,0,0,1,54.148-10.331C-603.148,391.443-598.339,391.3-593.534,391.092Z" transform="translate(37.935 37.811)" fill="#0ea08b" stroke="#0ea08b" stroke-miterlimit="10" stroke-width="1"/><path d="M-639.924,855.919a21.8,21.8,0,0,1-3.135-.723c-36.821-14.056-71.592-31.892-102.875-56.09-31.008-23.986-56.5-52.723-74.889-87.51a260.538,260.538,0,0,1-26.566-79.385,292.8,292.8,0,0,1-4.052-49.466A345.253,345.253,0,0,1-831.277,466.3c1.111-3.088,2.617-5.752,5.976-6.755a7.909,7.909,0,0,1,8.6,2.29c2.412,2.609,2.71,5.623,1.562,8.947-2.157,6.241-4.378,12.469-6.252,18.794a329.382,329.382,0,0,0-11.63,59.058,311.851,311.851,0,0,0-1.793,39.207c.794,38.984,8.766,76.289,26.3,111.318a241.61,241.61,0,0,0,43.461,60.7c23.557,24.171,50.891,43.132,80.7,58.7a450.752,450.752,0,0,0,47.322,21.15,8.13,8.13,0,0,1,5.51,8.414,8.132,8.132,0,0,1-5.849,7.349A24.366,24.366,0,0,1-639.924,855.919Z" transform="translate(21.115 78.868)" fill="#0ea08b" stroke="#0ea08b" stroke-miterlimit="10" stroke-width="1"/><path d="M-616.014,352.879c45.144-.024,83.761,8.9,120.306,26.778,28.274,13.828,53.463,32.03,76.114,53.814a331.854,331.854,0,0,1,52.3,64.157c1.126,1.814,2.237,3.643,3.244,5.524a8.364,8.364,0,0,1-3.212,11.45,8.293,8.293,0,0,1-11.269-3.29c-12.863-21.993-28.648-41.716-46.509-59.82-25.749-26.093-54.993-47.2-88.714-61.853a242.447,242.447,0,0,0-66.976-18.278c-35.156-4.382-69.708-1-103.846,7.862a380.874,380.874,0,0,0-62.076,22.364c-5.527,2.516-11.165-.221-12.2-5.882a8.188,8.188,0,0,1,4.817-9,401.792,401.792,0,0,1,43.552-17.176,340.206,340.206,0,0,1,53.624-13.064C-641.851,354.12-626.761,352.8-616.014,352.879Z" transform="translate(76.908 14.748)" fill="#0ea08b" stroke="#0ea08b" stroke-miterlimit="10" stroke-width="1"/><path d="M-726.943,555.239c-.691,0-3.508,0-4.2,0h-8.239A135.6,135.6,0,0,0-726.563,543.7H-713.4c0-1.079,0-4.8,0-6.974,0-3.178,0-3.906,0-5.825,2.665-2.739,8.391-9.475,11.359-12.844,0,3.908.006,8.641,0,11.776q-.053,58.673-.069,117.346c-.008,3.565.149,5.75,4.908,5.732,47.413-.176,94.83-.1,142.245-.17.7,0,2.5,1.279,2.352-1.045.12-1.745.345-3.489.346-5.234.014-35.976-.035-71.953.035-107.929.013-6.824-.566-13.668.374-20.477a111.4,111.4,0,0,1,12.215,11.938c.048,4.674.091,9.031.14,13.7h15.255c2.418,2.477,3.739,3.961,5.793,5.971,1.733,1.615,4.084,3.64,5.792,5.208-8.622,0-16.5,0-24.626.071-3.387.03-2.014.952-2.261,2.16-.037,30.234-.173,60.471-.014,90.7.027,5.165,1.647,10.3.752,15.549-3.337.014-6.675.037-10.014.04q-79.861.06-159.721.117c-.664,0-4.331-.006-4.995,0-.128-3.164.117-6.282.13-9.776.067-20.978,0-41.966,0-62.945,0-10.14.05-20.334,0-30.474-.01-1.619,0-3.221,0-5.083C-717.625,555.306-722.543,555.239-726.943,555.239Z" transform="translate(88.743 114.432)" fill="#0ea08b" stroke="#0ea08b" stroke-miterlimit="10" stroke-width="1"/><path d="M-493.43,559.529a19.312,19.312,0,0,1-6.377,6.247c-2.388,1.48-3.6-.281-5.239-1.757-30.2-27.3-58.663-56.431-88.448-84.172-7.756-7.222-15.195-14.789-22.652-22.322-3.4-3.431-5.715-4.123-9.757-.026-16.739,16.96-34.215,33.179-51.452,49.636q-23.545,22.479-46.759,45.343c-4.568,4.512-9.244,8.917-13.735,13.5-1.772,1.809-3.079,1.94-4.695-.069a22.774,22.774,0,0,0-3.366-3.329c-3.327-2.715-2.8-4.7.362-7.483,7.495-6.594,14.643-13.585,21.825-20.523,19.675-19.008,39.25-38.12,58.955-57.1,12.624-12.158,25.409-24.147,38.123-36.21a8.719,8.719,0,0,1,11.2-.151q7.966,7.24,15.706,14.728,34.866,33.606,69.689,67.253c11.505,11.062,23.162,21.965,34.752,32.937A4.343,4.343,0,0,1-493.43,559.529Z" transform="translate(83.436 66.819)" fill="#0ea08b" stroke="#0ea08b" stroke-miterlimit="10" stroke-width="1"/><path d="M-493.43,578.23a19.312,19.312,0,0,1-6.377,6.247c-2.388,1.48-3.6-.279-5.239-1.757-30.2-27.3-58.663-56.431-88.448-84.17-7.756-7.224-15.195-14.789-22.652-22.324-3.4-3.43-5.715-4.123-9.757-.026-16.739,16.96-34.215,33.179-51.452,49.637q-23.545,22.477-46.759,45.342c-4.568,4.512-9.244,8.919-13.735,13.5-1.772,1.81-3.079,1.94-4.695-.069a22.852,22.852,0,0,0-3.366-3.329c-3.327-2.715-2.8-4.7.362-7.483,7.495-6.594,14.643-13.583,21.825-20.523,19.675-19.008,39.25-38.12,58.955-57.1,12.624-12.158,25.409-24.147,38.123-36.21a8.719,8.719,0,0,1,11.2-.149q7.966,7.237,15.706,14.726,34.866,33.606,69.689,67.255c11.505,11.061,23.162,21.963,34.752,32.936A4.345,4.345,0,0,1-493.43,578.23Z" transform="translate(83.436 78.106)" fill="#0ea08b" stroke="#0ea08b" stroke-miterlimit="10" stroke-width="1"/><path d="M-684.565,572.52c.037-3.584-.035-7.464,0-11.046,4.673,0,16.3-.047,20.635,0v-5.3c0-7.527-.016-17.245,0-24.787,4.551.018,7.538.112,12.087.132-.01,6.271,0,13.5,0,19.768.133,5.372,0,7.61,0,10.192,11.21,0,14.314,0,23.473,0l-.223,11.046c-1.921-.021-4.512,0-6.422,0h-16.829v26.513c.066.255-.075,2.8,0,3.053-5,.026-7.089-.205-12.087-.18.022-.539-.143-3.5,0-3.816,0-.337-.014-.79,0-2.222.063-6.311,0-7.5,0-13.851v-9.5C-668.966,572.556-679.284,572.52-684.565,572.52Z" transform="translate(121.818 122.474)" fill="#0ea08b" stroke="#0ea08b" stroke-miterlimit="10" stroke-width="1"/><path d="M-616.483,570.025c.006,12.1.037,24.193-.008,36.292-.021,6.007-1.1,7.091-7.079,7.1q-29.753.055-59.507,0c-6.22-.011-7.3-1.143-7.306-7.427q-.034-36.288-.01-72.572c0-6.446,1.278-7.8,7.617-7.812q29.49-.063,58.981,0c5.943.013,7.272,1.414,7.294,7.594C-616.456,545.479-616.488,557.752-616.483,570.025Zm-64.348,6.613-.045,25.842c-.46,3.853,2.55,2.032,3.853,2.043,15.608.14,31.22-.056,46.823.189,4.235.066,4.881-1.6,4.846-5.26-.156-16.463.047-32.931-.127-49.4-.05-4.814.989-9.719-.683-14.467-7.342-.906-14.7-.54-22.051-.215a1.123,1.123,0,0,0-1.013.021l-13.651-.054c-4.9-.077-9.794-.085-14.686-.26-2.333-.083-3.545.475-3.478,3.152.208,8.383.226,16.769.316,25.157q-.055,5.371-.109,10.748Z" transform="translate(118.3 118.971)" fill="#0ea08b" stroke="#0ea08b" stroke-miterlimit="10" stroke-width="1"/></g></svg>